<?xml version="1.0" encoding="UTF-8"?>
<svg version="1.1" xmlns="http://www.w3.org/2000/svg" width="290" height="157">
<path d="M0 0 C14.75807481 11.17961186 25.23690067 27.83041236 28.56640625 46.0703125 C30.97841887 67.93053495 27.95812478 88.35881456 14.3125 106.125 C13.22251417 107.42865551 12.11721186 108.71959989 11 110 C10.23042969 110.96679688 9.46085938 111.93359375 8.66796875 112.9296875 C-2.58300793 126.41395664 -19.94463786 133.65825526 -37 136 C-59.34213158 137.45568772 -79.19577398 131.84727168 -96.5625 117.375 C-111.19065202 103.74124829 -120.3736794 86.08090402 -121.27734375 65.9453125 C-121.84315374 44.89222783 -116.92239739 27.08036899 -103 11 C-102.278125 10.01 -101.55625 9.02 -100.8125 8 C-75.70105604 -21.43256905 -29.6225068 -21.34431381 0 0 Z " fill="#393939" transform="translate(191,18)"/>
<path d="M0 0 C1.27746094 -0.01675781 2.55492188 -0.03351562 3.87109375 -0.05078125 C10.37721505 0.5895037 14.35442296 3.4570265 18.5625 8.3125 C24.13463271 15.81716429 25.5625 21.84394121 25.5625 31.3125 C11.7025 31.3125 -2.1575 31.3125 -16.4375 31.3125 C-14.39006775 41.28286577 -14.39006775 41.28286577 -8.4375 47.3125 C-4.42141629 49.53191468 -0.98128224 49.70420537 3.5625 49.3125 C9.25162416 47.32926251 9.25162416 47.32926251 13.5625 43.3125 C13.8925 42.3225 14.2225 41.3325 14.5625 40.3125 C17.5325 40.3125 20.5025 40.3125 23.5625 40.3125 C23.42650994 45.75210234 21.1249631 48.52870094 17.7421875 52.48046875 C12.43534881 56.94087618 6.86045768 57.87252886 0.1875 57.8125 C-0.56055908 57.80605469 -1.30861816 57.79960938 -2.0793457 57.79296875 C-9.3232084 57.55347617 -13.99394668 55.68733496 -19.19921875 50.5859375 C-24.84640455 43.94058084 -27.06693912 35.20350121 -26.7265625 26.5703125 C-25.4883076 16.89853775 -21.66131201 9.94882963 -14.31640625 3.609375 C-9.6750169 0.40575491 -5.57920535 0.01685561 0 0 Z " fill="#F8F8F8" transform="translate(116.4375,49.6875)"/>
<path d="M0 0 C4.27590822 -0.92571209 7.75415442 -1.16249356 12 0 C16.35394445 3.75076385 19.16707326 9.07201863 22 14 C22.58652344 14.97582031 23.17304688 15.95164062 23.77734375 16.95703125 C24.38255859 17.96830078 24.38255859 17.96830078 25 19 C26.58581978 16.96022417 28.16868908 14.91826692 29.75 12.875 C30.41515625 12.02035156 30.41515625 12.02035156 31.09375 11.1484375 C31.53203125 10.58125 31.9703125 10.0140625 32.421875 9.4296875 C32.86176758 8.8629834 33.30166016 8.2962793 33.75488281 7.71240234 C35.20903752 5.77517392 35.20903752 5.77517392 36.96875 2.59375 C39 0 39 0 41.796875 -0.5859375 C43.25867188 -0.48152344 43.25867188 -0.48152344 44.75 -0.375 C45.73484375 -0.32085937 46.7196875 -0.26671875 47.734375 -0.2109375 C48.48203125 -0.14132813 49.2296875 -0.07171875 50 0 C48.26136396 3.91193108 45.75859284 7.24664104 43.25 10.6875 C39.37738563 16.0486111 35.62149545 21.46512335 32 27 C32.76183594 28.00417969 33.52367187 29.00835937 34.30859375 30.04296875 C39.38242188 36.75367515 44.428697 43.47963452 49.25 50.375 C49.97703125 51.41398437 50.7040625 52.45296875 51.453125 53.5234375 C53 56 53 56 53 58 C48.80673626 58.72606072 45.1718477 58.93898468 41 58 C37.34101382 54.70780705 35.14151494 50.76662309 32.75 46.5 C32.08871094 45.40300781 31.42742187 44.30601563 30.74609375 43.17578125 C29.12337658 40.47125263 27.54509203 37.74937363 26 35 C23.28632329 37.59094211 21.07209108 40.15517139 19.01953125 43.29296875 C18.49552734 44.08767578 17.97152344 44.88238281 17.43164062 45.70117188 C16.89732422 46.52166016 16.36300781 47.34214844 15.8125 48.1875 C14.73658225 49.82741714 13.65980548 51.46677112 12.58203125 53.10546875 C12.10999268 53.82887451 11.6379541 54.55228027 11.15161133 55.29760742 C10 57 10 57 9 58 C7.14712498 58.07226502 5.29166122 58.0838122 3.4375 58.0625 C2.42558594 58.05347656 1.41367188 58.04445312 0.37109375 58.03515625 C-0.41136719 58.02355469 -1.19382813 58.01195312 -2 58 C-0.59902123 55.04598857 1.01158971 52.3919673 2.86328125 49.69921875 C3.42080078 48.88646484 3.97832031 48.07371094 4.55273438 47.23632812 C5.13345703 46.39521484 5.71417969 45.55410156 6.3125 44.6875 C6.88162109 43.85798828 7.45074219 43.02847656 8.03710938 42.17382812 C8.87918945 40.94889648 8.87918945 40.94889648 9.73828125 39.69921875 C10.5573999 38.49918213 10.5573999 38.49918213 11.39306641 37.27490234 C12.41959854 35.82166223 13.48678659 34.39577967 14.60302734 33.01025391 C16.23335532 31.04603031 16.23335532 31.04603031 18 28 C16.96311793 24.30319267 15.1117656 21.53426807 12.8125 18.49609375 C11.88824219 17.26149414 11.88824219 17.26149414 10.9453125 16.00195312 C10.30335938 15.15568359 9.66140625 14.30941406 9 13.4375 C7.7263559 11.7508167 6.45541441 10.06208839 5.1875 8.37109375 C4.62417969 7.62786865 4.06085938 6.88464355 3.48046875 6.11889648 C2.09712008 4.13900152 1.01447351 2.18761314 0 0 Z " fill="#F9F9F9" transform="translate(146,50)"/>
<path d="M0 0 C5.08697965 4.48851146 6.98109885 7.01159309 8.125 13.875 C-2.435 13.875 -12.995 13.875 -23.875 13.875 C-22.82021376 7.54628255 -21.52561538 4.28465035 -16.8125 0 C-11.40183918 -2.07216797 -5.40324502 -2.11431327 0 0 Z " fill="#3B3B3B" transform="translate(123.875,59.125)"/>
</svg>
